<mxfile host="app.diagrams.net" modified="2023-09-04T11:32:33.428Z" agent="Mozilla/5.0 (Windows NT 10.0; Win64; x64) AppleWebKit/537.36 (KHTML, like Gecko) Chrome/116.0.0.0 Safari/537.36" etag="eQ3O0jyFHXLnH5N9j-g3" version="21.7.2" type="device">
  <diagram id="Swy_Kmeid2aEvp7q4bGA" name="Page-1">
    <mxGraphModel dx="1114" dy="473" grid="1" gridSize="10" guides="1" tooltips="1" connect="1" arrows="1" fold="1" page="1" pageScale="1" pageWidth="1100" pageHeight="850" math="0" shadow="0">
      <root>
        <mxCell id="0" />
        <mxCell id="1" parent="0" />
        <mxCell id="SqwF1IbfU58eQdnAGA33-1" value="STAFF" style="shape=cube;whiteSpace=wrap;html=1;boundedLbl=1;backgroundOutline=1;darkOpacity=0.05;darkOpacity2=0.1;fontSize=13;direction=south;" parent="1" vertex="1">
          <mxGeometry x="195" y="35" width="125" height="55" as="geometry" />
        </mxCell>
        <mxCell id="SqwF1IbfU58eQdnAGA33-23" value="" style="rounded=1;whiteSpace=wrap;html=1;container=1;" parent="1" vertex="1">
          <mxGeometry x="20" y="190" width="120" height="120" as="geometry">
            <mxRectangle x="40" y="160" width="50" height="40" as="alternateBounds" />
          </mxGeometry>
        </mxCell>
        <mxCell id="9iBqQjDq5Y0UraFRO6g6-12" value="" style="endArrow=none;html=1;rounded=0;" parent="SqwF1IbfU58eQdnAGA33-23" edge="1">
          <mxGeometry width="50" height="50" relative="1" as="geometry">
            <mxPoint x="-1.6" y="92.30769230769229" as="sourcePoint" />
            <mxPoint x="118.4" y="92.30769230769229" as="targetPoint" />
          </mxGeometry>
        </mxCell>
        <mxCell id="9iBqQjDq5Y0UraFRO6g6-13" value="" style="endArrow=none;html=1;rounded=0;" parent="SqwF1IbfU58eQdnAGA33-23" edge="1">
          <mxGeometry width="50" height="50" relative="1" as="geometry">
            <mxPoint x="-1.6" y="36.92307692307691" as="sourcePoint" />
            <mxPoint x="118.4" y="36.92307692307691" as="targetPoint" />
          </mxGeometry>
        </mxCell>
        <mxCell id="9iBqQjDq5Y0UraFRO6g6-41" value="1" style="text;html=1;strokeColor=none;fillColor=none;align=center;verticalAlign=middle;whiteSpace=wrap;rounded=0;" parent="SqwF1IbfU58eQdnAGA33-23" vertex="1">
          <mxGeometry x="30" y="10" width="60" height="30" as="geometry" />
        </mxCell>
        <mxCell id="9iBqQjDq5Y0UraFRO6g6-42" value="Log In&amp;nbsp;" style="text;html=1;strokeColor=none;fillColor=none;align=center;verticalAlign=middle;whiteSpace=wrap;rounded=0;" parent="SqwF1IbfU58eQdnAGA33-23" vertex="1">
          <mxGeometry x="30" y="45" width="60" height="30" as="geometry" />
        </mxCell>
        <mxCell id="9iBqQjDq5Y0UraFRO6g6-43" value="C#" style="text;html=1;strokeColor=none;fillColor=none;align=center;verticalAlign=middle;whiteSpace=wrap;rounded=0;" parent="SqwF1IbfU58eQdnAGA33-23" vertex="1">
          <mxGeometry x="30" y="90" width="60" height="30" as="geometry" />
        </mxCell>
        <mxCell id="9iBqQjDq5Y0UraFRO6g6-26" value="Maintain Animals" style="rounded=1;whiteSpace=wrap;html=1;container=1;" parent="1" vertex="1">
          <mxGeometry x="210" y="190" width="120" height="120" as="geometry">
            <mxRectangle x="40" y="160" width="50" height="40" as="alternateBounds" />
          </mxGeometry>
        </mxCell>
        <mxCell id="9iBqQjDq5Y0UraFRO6g6-27" value="" style="endArrow=none;html=1;rounded=0;" parent="9iBqQjDq5Y0UraFRO6g6-26" edge="1">
          <mxGeometry width="50" height="50" relative="1" as="geometry">
            <mxPoint x="-1.6" y="92.30769230769229" as="sourcePoint" />
            <mxPoint x="118.4" y="92.30769230769229" as="targetPoint" />
          </mxGeometry>
        </mxCell>
        <mxCell id="9iBqQjDq5Y0UraFRO6g6-28" value="" style="endArrow=none;html=1;rounded=0;" parent="9iBqQjDq5Y0UraFRO6g6-26" edge="1">
          <mxGeometry width="50" height="50" relative="1" as="geometry">
            <mxPoint x="-1.6" y="36.92307692307691" as="sourcePoint" />
            <mxPoint x="118.4" y="36.92307692307691" as="targetPoint" />
          </mxGeometry>
        </mxCell>
        <mxCell id="9iBqQjDq5Y0UraFRO6g6-44" value="2" style="text;html=1;strokeColor=none;fillColor=none;align=center;verticalAlign=middle;whiteSpace=wrap;rounded=0;" parent="9iBqQjDq5Y0UraFRO6g6-26" vertex="1">
          <mxGeometry x="30" y="1" width="60" height="30" as="geometry" />
        </mxCell>
        <mxCell id="9iBqQjDq5Y0UraFRO6g6-46" value="c#" style="text;html=1;strokeColor=none;fillColor=none;align=center;verticalAlign=middle;whiteSpace=wrap;rounded=0;" parent="9iBqQjDq5Y0UraFRO6g6-26" vertex="1">
          <mxGeometry x="30" y="90" width="60" height="30" as="geometry" />
        </mxCell>
        <mxCell id="9iBqQjDq5Y0UraFRO6g6-29" value="Enter Zoo&amp;nbsp;" style="rounded=1;whiteSpace=wrap;html=1;container=1;" parent="1" vertex="1">
          <mxGeometry x="400" y="190" width="120" height="120" as="geometry">
            <mxRectangle x="40" y="160" width="50" height="40" as="alternateBounds" />
          </mxGeometry>
        </mxCell>
        <mxCell id="9iBqQjDq5Y0UraFRO6g6-30" value="" style="endArrow=none;html=1;rounded=0;" parent="9iBqQjDq5Y0UraFRO6g6-29" edge="1">
          <mxGeometry width="50" height="50" relative="1" as="geometry">
            <mxPoint x="-1.6" y="92.30769230769229" as="sourcePoint" />
            <mxPoint x="118.4" y="92.30769230769229" as="targetPoint" />
          </mxGeometry>
        </mxCell>
        <mxCell id="9iBqQjDq5Y0UraFRO6g6-31" value="" style="endArrow=none;html=1;rounded=0;" parent="9iBqQjDq5Y0UraFRO6g6-29" edge="1">
          <mxGeometry width="50" height="50" relative="1" as="geometry">
            <mxPoint x="-1.6" y="36.92307692307691" as="sourcePoint" />
            <mxPoint x="118.4" y="36.92307692307691" as="targetPoint" />
          </mxGeometry>
        </mxCell>
        <mxCell id="9iBqQjDq5Y0UraFRO6g6-47" value="3" style="text;html=1;strokeColor=none;fillColor=none;align=center;verticalAlign=middle;whiteSpace=wrap;rounded=0;" parent="9iBqQjDq5Y0UraFRO6g6-29" vertex="1">
          <mxGeometry x="30" y="5" width="60" height="30" as="geometry" />
        </mxCell>
        <mxCell id="9iBqQjDq5Y0UraFRO6g6-49" value="C#" style="text;html=1;strokeColor=none;fillColor=none;align=center;verticalAlign=middle;whiteSpace=wrap;rounded=0;" parent="9iBqQjDq5Y0UraFRO6g6-29" vertex="1">
          <mxGeometry x="30" y="90" width="60" height="30" as="geometry" />
        </mxCell>
        <mxCell id="9iBqQjDq5Y0UraFRO6g6-32" value="" style="rounded=1;whiteSpace=wrap;html=1;container=1;" parent="1" vertex="1">
          <mxGeometry x="590" y="190" width="120" height="120" as="geometry">
            <mxRectangle x="40" y="160" width="50" height="40" as="alternateBounds" />
          </mxGeometry>
        </mxCell>
        <mxCell id="9iBqQjDq5Y0UraFRO6g6-33" value="" style="endArrow=none;html=1;rounded=0;" parent="9iBqQjDq5Y0UraFRO6g6-32" edge="1">
          <mxGeometry width="50" height="50" relative="1" as="geometry">
            <mxPoint x="-1.6" y="92.30769230769229" as="sourcePoint" />
            <mxPoint x="118.4" y="92.30769230769229" as="targetPoint" />
          </mxGeometry>
        </mxCell>
        <mxCell id="9iBqQjDq5Y0UraFRO6g6-34" value="" style="endArrow=none;html=1;rounded=0;" parent="9iBqQjDq5Y0UraFRO6g6-32" edge="1">
          <mxGeometry width="50" height="50" relative="1" as="geometry">
            <mxPoint x="-1.6" y="36.92307692307691" as="sourcePoint" />
            <mxPoint x="118.4" y="36.92307692307691" as="targetPoint" />
          </mxGeometry>
        </mxCell>
        <mxCell id="9iBqQjDq5Y0UraFRO6g6-50" value="4" style="text;html=1;strokeColor=none;fillColor=none;align=center;verticalAlign=middle;whiteSpace=wrap;rounded=0;" parent="9iBqQjDq5Y0UraFRO6g6-32" vertex="1">
          <mxGeometry x="30" width="60" height="30" as="geometry" />
        </mxCell>
        <mxCell id="9iBqQjDq5Y0UraFRO6g6-51" value="Maintain Visitors&amp;nbsp;" style="text;html=1;strokeColor=none;fillColor=none;align=center;verticalAlign=middle;whiteSpace=wrap;rounded=0;" parent="9iBqQjDq5Y0UraFRO6g6-32" vertex="1">
          <mxGeometry x="30" y="45" width="60" height="30" as="geometry" />
        </mxCell>
        <mxCell id="9iBqQjDq5Y0UraFRO6g6-52" value="C#" style="text;html=1;strokeColor=none;fillColor=none;align=center;verticalAlign=middle;whiteSpace=wrap;rounded=0;" parent="9iBqQjDq5Y0UraFRO6g6-32" vertex="1">
          <mxGeometry x="20" y="90" width="60" height="30" as="geometry" />
        </mxCell>
        <mxCell id="9iBqQjDq5Y0UraFRO6g6-35" value="" style="rounded=1;whiteSpace=wrap;html=1;container=1;" parent="1" vertex="1">
          <mxGeometry x="770" y="190" width="120" height="120" as="geometry">
            <mxRectangle x="40" y="160" width="50" height="40" as="alternateBounds" />
          </mxGeometry>
        </mxCell>
        <mxCell id="9iBqQjDq5Y0UraFRO6g6-36" value="" style="endArrow=none;html=1;rounded=0;" parent="9iBqQjDq5Y0UraFRO6g6-35" edge="1">
          <mxGeometry width="50" height="50" relative="1" as="geometry">
            <mxPoint x="-1.6" y="92.30769230769229" as="sourcePoint" />
            <mxPoint x="118.4" y="92.30769230769229" as="targetPoint" />
          </mxGeometry>
        </mxCell>
        <mxCell id="9iBqQjDq5Y0UraFRO6g6-37" value="" style="endArrow=none;html=1;rounded=0;" parent="9iBqQjDq5Y0UraFRO6g6-35" edge="1">
          <mxGeometry width="50" height="50" relative="1" as="geometry">
            <mxPoint x="-1.6" y="36.92307692307691" as="sourcePoint" />
            <mxPoint x="118.4" y="36.92307692307691" as="targetPoint" />
          </mxGeometry>
        </mxCell>
        <mxCell id="9iBqQjDq5Y0UraFRO6g6-54" value="5" style="text;html=1;strokeColor=none;fillColor=none;align=center;verticalAlign=middle;whiteSpace=wrap;rounded=0;" parent="9iBqQjDq5Y0UraFRO6g6-35" vertex="1">
          <mxGeometry x="30" width="60" height="30" as="geometry" />
        </mxCell>
        <mxCell id="9iBqQjDq5Y0UraFRO6g6-55" value="Buy a ticket" style="text;html=1;strokeColor=none;fillColor=none;align=center;verticalAlign=middle;whiteSpace=wrap;rounded=0;" parent="9iBqQjDq5Y0UraFRO6g6-35" vertex="1">
          <mxGeometry x="30" y="45" width="60" height="30" as="geometry" />
        </mxCell>
        <mxCell id="9iBqQjDq5Y0UraFRO6g6-56" value="C#" style="text;html=1;strokeColor=none;fillColor=none;align=center;verticalAlign=middle;whiteSpace=wrap;rounded=0;" parent="9iBqQjDq5Y0UraFRO6g6-35" vertex="1">
          <mxGeometry x="30" y="90" width="60" height="30" as="geometry" />
        </mxCell>
        <mxCell id="9iBqQjDq5Y0UraFRO6g6-38" value="" style="rounded=1;whiteSpace=wrap;html=1;container=1;" parent="1" vertex="1">
          <mxGeometry x="960" y="190" width="120" height="120" as="geometry">
            <mxRectangle x="40" y="160" width="50" height="40" as="alternateBounds" />
          </mxGeometry>
        </mxCell>
        <mxCell id="9iBqQjDq5Y0UraFRO6g6-39" value="" style="endArrow=none;html=1;rounded=0;" parent="9iBqQjDq5Y0UraFRO6g6-38" edge="1">
          <mxGeometry width="50" height="50" relative="1" as="geometry">
            <mxPoint x="-1.6" y="92.30769230769229" as="sourcePoint" />
            <mxPoint x="118.4" y="92.30769230769229" as="targetPoint" />
          </mxGeometry>
        </mxCell>
        <mxCell id="9iBqQjDq5Y0UraFRO6g6-40" value="" style="endArrow=none;html=1;rounded=0;" parent="9iBqQjDq5Y0UraFRO6g6-38" edge="1">
          <mxGeometry width="50" height="50" relative="1" as="geometry">
            <mxPoint x="-1.6" y="36.92307692307691" as="sourcePoint" />
            <mxPoint x="118.4" y="36.92307692307691" as="targetPoint" />
          </mxGeometry>
        </mxCell>
        <mxCell id="9iBqQjDq5Y0UraFRO6g6-57" value="6" style="text;html=1;strokeColor=none;fillColor=none;align=center;verticalAlign=middle;whiteSpace=wrap;rounded=0;" parent="9iBqQjDq5Y0UraFRO6g6-38" vertex="1">
          <mxGeometry x="30" width="60" height="30" as="geometry" />
        </mxCell>
        <mxCell id="9iBqQjDq5Y0UraFRO6g6-58" value="Exit the zoo" style="text;html=1;strokeColor=none;fillColor=none;align=center;verticalAlign=middle;whiteSpace=wrap;rounded=0;" parent="9iBqQjDq5Y0UraFRO6g6-38" vertex="1">
          <mxGeometry x="30" y="45" width="60" height="30" as="geometry" />
        </mxCell>
        <mxCell id="9iBqQjDq5Y0UraFRO6g6-59" value="C#" style="text;html=1;strokeColor=none;fillColor=none;align=center;verticalAlign=middle;whiteSpace=wrap;rounded=0;" parent="9iBqQjDq5Y0UraFRO6g6-38" vertex="1">
          <mxGeometry x="30" y="90" width="60" height="30" as="geometry" />
        </mxCell>
        <mxCell id="9iBqQjDq5Y0UraFRO6g6-60" value="" style="html=1;dashed=0;whiteSpace=wrap;shape=mxgraph.dfd.dataStoreID;align=left;spacingLeft=3;points=[[0,0],[0.5,0],[1,0],[0,0.5],[1,0.5],[0,1],[0.5,1],[1,1]];" parent="1" vertex="1">
          <mxGeometry x="32" y="515" width="110" height="40" as="geometry" />
        </mxCell>
        <mxCell id="9iBqQjDq5Y0UraFRO6g6-61" value="" style="html=1;dashed=0;whiteSpace=wrap;shape=mxgraph.dfd.dataStoreID;align=left;spacingLeft=3;points=[[0,0],[0.5,0],[1,0],[0,0.5],[1,0.5],[0,1],[0.5,1],[1,1]];" parent="1" vertex="1">
          <mxGeometry x="220" y="515" width="110" height="40" as="geometry" />
        </mxCell>
        <mxCell id="9iBqQjDq5Y0UraFRO6g6-62" value="" style="html=1;dashed=0;whiteSpace=wrap;shape=mxgraph.dfd.dataStoreID;align=left;spacingLeft=3;points=[[0,0],[0.5,0],[1,0],[0,0.5],[1,0.5],[0,1],[0.5,1],[1,1]];" parent="1" vertex="1">
          <mxGeometry x="385" y="515" width="110" height="40" as="geometry" />
        </mxCell>
        <mxCell id="9iBqQjDq5Y0UraFRO6g6-63" value="" style="html=1;dashed=0;whiteSpace=wrap;shape=mxgraph.dfd.dataStoreID;align=left;spacingLeft=3;points=[[0,0],[0.5,0],[1,0],[0,0.5],[1,0.5],[0,1],[0.5,1],[1,1]];" parent="1" vertex="1">
          <mxGeometry x="600" y="515" width="110" height="40" as="geometry" />
        </mxCell>
        <mxCell id="9iBqQjDq5Y0UraFRO6g6-64" value="" style="html=1;dashed=0;whiteSpace=wrap;shape=mxgraph.dfd.dataStoreID;align=left;spacingLeft=3;points=[[0,0],[0.5,0],[1,0],[0,0.5],[1,0.5],[0,1],[0.5,1],[1,1]];" parent="1" vertex="1">
          <mxGeometry x="780" y="516" width="110" height="40" as="geometry" />
        </mxCell>
        <mxCell id="9iBqQjDq5Y0UraFRO6g6-65" value="" style="html=1;dashed=0;whiteSpace=wrap;shape=mxgraph.dfd.dataStoreID;align=left;spacingLeft=3;points=[[0,0],[0.5,0],[1,0],[0,0.5],[1,0.5],[0,1],[0.5,1],[1,1]];" parent="1" vertex="1">
          <mxGeometry x="920" y="516" width="110" height="40" as="geometry" />
        </mxCell>
        <mxCell id="9iBqQjDq5Y0UraFRO6g6-66" value="D1" style="text;html=1;strokeColor=none;fillColor=none;align=center;verticalAlign=middle;whiteSpace=wrap;rounded=0;rotation=-90;" parent="1" vertex="1">
          <mxGeometry x="20" y="521" width="60" height="30" as="geometry" />
        </mxCell>
        <mxCell id="9iBqQjDq5Y0UraFRO6g6-67" value="D2" style="text;html=1;strokeColor=none;fillColor=none;align=center;verticalAlign=middle;whiteSpace=wrap;rounded=0;rotation=-90;" parent="1" vertex="1">
          <mxGeometry x="210" y="521" width="60" height="30" as="geometry" />
        </mxCell>
        <mxCell id="9iBqQjDq5Y0UraFRO6g6-68" value="D3&lt;br&gt;" style="text;html=1;strokeColor=none;fillColor=none;align=center;verticalAlign=middle;whiteSpace=wrap;rounded=0;rotation=-90;" parent="1" vertex="1">
          <mxGeometry x="371" y="526" width="60" height="30" as="geometry" />
        </mxCell>
        <mxCell id="9iBqQjDq5Y0UraFRO6g6-69" value="D4" style="text;html=1;strokeColor=none;fillColor=none;align=center;verticalAlign=middle;whiteSpace=wrap;rounded=0;rotation=-90;" parent="1" vertex="1">
          <mxGeometry x="590" y="516" width="60" height="30" as="geometry" />
        </mxCell>
        <mxCell id="9iBqQjDq5Y0UraFRO6g6-70" value="D5" style="text;html=1;strokeColor=none;fillColor=none;align=center;verticalAlign=middle;whiteSpace=wrap;rounded=0;rotation=-90;" parent="1" vertex="1">
          <mxGeometry x="770" y="526" width="60" height="30" as="geometry" />
        </mxCell>
        <mxCell id="9iBqQjDq5Y0UraFRO6g6-71" value="D6" style="text;html=1;strokeColor=none;fillColor=none;align=center;verticalAlign=middle;whiteSpace=wrap;rounded=0;rotation=-90;" parent="1" vertex="1">
          <mxGeometry x="910" y="525" width="60" height="30" as="geometry" />
        </mxCell>
        <mxCell id="9iBqQjDq5Y0UraFRO6g6-72" value="My Sql:&lt;br&gt;Users" style="text;html=1;strokeColor=none;fillColor=none;align=center;verticalAlign=middle;whiteSpace=wrap;rounded=0;" parent="1" vertex="1">
          <mxGeometry x="71" y="520" width="60" height="31" as="geometry" />
        </mxCell>
        <mxCell id="9iBqQjDq5Y0UraFRO6g6-73" value="My Sql:&lt;br&gt;ANIMALS" style="text;html=1;strokeColor=none;fillColor=none;align=center;verticalAlign=middle;whiteSpace=wrap;rounded=0;" parent="1" vertex="1">
          <mxGeometry x="260" y="521" width="60" height="30" as="geometry" />
        </mxCell>
        <mxCell id="9iBqQjDq5Y0UraFRO6g6-74" value="My Sql:&lt;br&gt;VISITORS_ON_TICKET" style="text;html=1;strokeColor=none;fillColor=none;align=center;verticalAlign=middle;whiteSpace=wrap;rounded=0;" parent="1" vertex="1">
          <mxGeometry x="450" y="521" width="60" height="30" as="geometry" />
        </mxCell>
        <mxCell id="9iBqQjDq5Y0UraFRO6g6-75" value="My Sql:&lt;br&gt;VISITORS" style="text;html=1;strokeColor=none;fillColor=none;align=center;verticalAlign=middle;whiteSpace=wrap;rounded=0;" parent="1" vertex="1">
          <mxGeometry x="640" y="521" width="60" height="30" as="geometry" />
        </mxCell>
        <mxCell id="9iBqQjDq5Y0UraFRO6g6-76" value="My Sql:&lt;br&gt;TICKETS" style="text;html=1;strokeColor=none;fillColor=none;align=center;verticalAlign=middle;whiteSpace=wrap;rounded=0;" parent="1" vertex="1">
          <mxGeometry x="820" y="520" width="60" height="30" as="geometry" />
        </mxCell>
        <mxCell id="9iBqQjDq5Y0UraFRO6g6-77" value="My Sql:&lt;br&gt;VISITORS_ON_TICKET&amp;nbsp;" style="text;html=1;strokeColor=none;fillColor=none;align=center;verticalAlign=middle;whiteSpace=wrap;rounded=0;" parent="1" vertex="1">
          <mxGeometry x="990" y="521" width="60" height="30" as="geometry" />
        </mxCell>
        <mxCell id="9iBqQjDq5Y0UraFRO6g6-78" value="ADMIN" style="shape=cube;whiteSpace=wrap;html=1;boundedLbl=1;backgroundOutline=1;darkOpacity=0.05;darkOpacity2=0.1;fontSize=13;direction=south;" parent="1" vertex="1">
          <mxGeometry x="110" y="740" width="125" height="55" as="geometry" />
        </mxCell>
        <mxCell id="9iBqQjDq5Y0UraFRO6g6-79" value="VISITORS" style="shape=cube;whiteSpace=wrap;html=1;boundedLbl=1;backgroundOutline=1;darkOpacity=0.05;darkOpacity2=0.1;fontSize=13;direction=south;" parent="1" vertex="1">
          <mxGeometry x="723" y="670" width="125" height="55" as="geometry" />
        </mxCell>
        <mxCell id="9iBqQjDq5Y0UraFRO6g6-80" value="" style="endArrow=classic;html=1;rounded=0;entryX=0.5;entryY=0;entryDx=0;entryDy=0;exitX=0;exitY=0;exitDx=35;exitDy=0;exitPerimeter=0;" parent="1" source="SqwF1IbfU58eQdnAGA33-1" edge="1">
          <mxGeometry width="50" height="50" relative="1" as="geometry">
            <mxPoint x="580" y="70" as="sourcePoint" />
            <mxPoint x="470" y="190" as="targetPoint" />
            <Array as="points">
              <mxPoint x="470" y="70" />
            </Array>
          </mxGeometry>
        </mxCell>
        <mxCell id="9iBqQjDq5Y0UraFRO6g6-81" value="" style="endArrow=classic;html=1;rounded=0;entryX=0.5;entryY=0;entryDx=0;entryDy=0;" parent="1" edge="1">
          <mxGeometry width="50" height="50" relative="1" as="geometry">
            <mxPoint x="270" y="89" as="sourcePoint" />
            <mxPoint x="270" y="190" as="targetPoint" />
            <Array as="points">
              <mxPoint x="270" y="130" />
            </Array>
          </mxGeometry>
        </mxCell>
        <mxCell id="9iBqQjDq5Y0UraFRO6g6-82" value="" style="endArrow=classic;html=1;rounded=0;entryX=0.5;entryY=0;entryDx=0;entryDy=0;" parent="1" edge="1">
          <mxGeometry width="50" height="50" relative="1" as="geometry">
            <mxPoint x="190" y="70" as="sourcePoint" />
            <mxPoint x="80" y="190" as="targetPoint" />
            <Array as="points">
              <mxPoint x="80" y="70" />
            </Array>
          </mxGeometry>
        </mxCell>
        <mxCell id="9iBqQjDq5Y0UraFRO6g6-84" value="" style="endArrow=classic;html=1;rounded=0;entryX=0.5;entryY=0;entryDx=0;entryDy=0;" parent="1" edge="1">
          <mxGeometry width="50" height="50" relative="1" as="geometry">
            <mxPoint x="320" y="40" as="sourcePoint" />
            <mxPoint x="1030" y="190" as="targetPoint" />
            <Array as="points">
              <mxPoint x="1030" y="40" />
            </Array>
          </mxGeometry>
        </mxCell>
        <mxCell id="9iBqQjDq5Y0UraFRO6g6-85" value="" style="endArrow=classic;html=1;rounded=0;entryX=0.5;entryY=0;entryDx=0;entryDy=0;exitX=0;exitY=0;exitDx=17.5;exitDy=0;exitPerimeter=0;" parent="1" edge="1">
          <mxGeometry width="50" height="50" relative="1" as="geometry">
            <mxPoint x="320" y="52.5" as="sourcePoint" />
            <mxPoint x="840" y="190" as="targetPoint" />
            <Array as="points">
              <mxPoint x="840" y="50" />
            </Array>
          </mxGeometry>
        </mxCell>
        <mxCell id="9iBqQjDq5Y0UraFRO6g6-86" value="" style="endArrow=classic;html=1;rounded=0;entryX=0.44;entryY=0.004;entryDx=0;entryDy=0;entryPerimeter=0;" parent="1" target="9iBqQjDq5Y0UraFRO6g6-61" edge="1">
          <mxGeometry width="50" height="50" relative="1" as="geometry">
            <mxPoint x="268" y="310" as="sourcePoint" />
            <mxPoint x="400" y="385" as="targetPoint" />
          </mxGeometry>
        </mxCell>
        <mxCell id="9iBqQjDq5Y0UraFRO6g6-87" value="" style="endArrow=classic;html=1;rounded=0;entryX=0.44;entryY=0.004;entryDx=0;entryDy=0;entryPerimeter=0;" parent="1" edge="1">
          <mxGeometry width="50" height="50" relative="1" as="geometry">
            <mxPoint x="459.5" y="311" as="sourcePoint" />
            <mxPoint x="459.5" y="516" as="targetPoint" />
          </mxGeometry>
        </mxCell>
        <mxCell id="9iBqQjDq5Y0UraFRO6g6-88" value="" style="endArrow=classic;html=1;rounded=0;entryX=0.44;entryY=0.004;entryDx=0;entryDy=0;entryPerimeter=0;" parent="1" edge="1">
          <mxGeometry width="50" height="50" relative="1" as="geometry">
            <mxPoint x="834.5" y="311" as="sourcePoint" />
            <mxPoint x="834.5" y="516" as="targetPoint" />
          </mxGeometry>
        </mxCell>
        <mxCell id="9iBqQjDq5Y0UraFRO6g6-89" value="" style="endArrow=classic;html=1;rounded=0;entryX=0.44;entryY=0.004;entryDx=0;entryDy=0;entryPerimeter=0;" parent="1" edge="1">
          <mxGeometry width="50" height="50" relative="1" as="geometry">
            <mxPoint x="654.5" y="310" as="sourcePoint" />
            <mxPoint x="654.5" y="515" as="targetPoint" />
          </mxGeometry>
        </mxCell>
        <mxCell id="9iBqQjDq5Y0UraFRO6g6-90" value="" style="endArrow=classic;html=1;rounded=0;entryX=0.44;entryY=0.004;entryDx=0;entryDy=0;entryPerimeter=0;" parent="1" edge="1">
          <mxGeometry width="50" height="50" relative="1" as="geometry">
            <mxPoint x="1019.5" y="311" as="sourcePoint" />
            <mxPoint x="1019.5" y="516" as="targetPoint" />
          </mxGeometry>
        </mxCell>
        <mxCell id="9iBqQjDq5Y0UraFRO6g6-91" value="" style="endArrow=classic;html=1;rounded=0;entryX=0;entryY=1;entryDx=0;entryDy=0;exitX=0.005;exitY=0.475;exitDx=0;exitDy=0;exitPerimeter=0;" parent="1" source="9iBqQjDq5Y0UraFRO6g6-78" target="9iBqQjDq5Y0UraFRO6g6-26" edge="1">
          <mxGeometry width="50" height="50" relative="1" as="geometry">
            <mxPoint x="190" y="590" as="sourcePoint" />
            <mxPoint x="190" y="390" as="targetPoint" />
            <Array as="points">
              <mxPoint x="173" y="310" />
            </Array>
          </mxGeometry>
        </mxCell>
        <mxCell id="9iBqQjDq5Y0UraFRO6g6-92" value="" style="endArrow=classic;html=1;rounded=0;entryX=0.064;entryY=1.022;entryDx=0;entryDy=0;entryPerimeter=0;" parent="1" target="SqwF1IbfU58eQdnAGA33-23" edge="1">
          <mxGeometry width="50" height="50" relative="1" as="geometry">
            <mxPoint x="110" y="760" as="sourcePoint" />
            <mxPoint x="160" y="710" as="targetPoint" />
            <Array as="points">
              <mxPoint x="10" y="760" />
              <mxPoint x="10" y="530" />
              <mxPoint x="10" y="313" />
            </Array>
          </mxGeometry>
        </mxCell>
        <mxCell id="9iBqQjDq5Y0UraFRO6g6-93" value="" style="endArrow=classic;html=1;rounded=0;entryX=0.5;entryY=1;entryDx=0;entryDy=0;" parent="1" edge="1">
          <mxGeometry width="50" height="50" relative="1" as="geometry">
            <mxPoint x="80" y="510" as="sourcePoint" />
            <mxPoint x="80" y="310" as="targetPoint" />
          </mxGeometry>
        </mxCell>
        <mxCell id="9iBqQjDq5Y0UraFRO6g6-94" value="" style="endArrow=classic;html=1;rounded=0;exitX=0;exitY=0;exitDx=17.5;exitDy=0;exitPerimeter=0;" parent="1" source="9iBqQjDq5Y0UraFRO6g6-78" edge="1">
          <mxGeometry width="50" height="50" relative="1" as="geometry">
            <mxPoint x="235" y="778.96" as="sourcePoint" />
            <mxPoint x="420" y="311.46" as="targetPoint" />
            <Array as="points">
              <mxPoint x="300" y="760" />
              <mxPoint x="362" y="760" />
              <mxPoint x="362" y="452" />
              <mxPoint x="422" y="452" />
            </Array>
          </mxGeometry>
        </mxCell>
        <mxCell id="9iBqQjDq5Y0UraFRO6g6-95" value="" style="endArrow=classic;html=1;rounded=0;exitX=0;exitY=0;exitDx=0;exitDy=105;exitPerimeter=0;" parent="1" edge="1">
          <mxGeometry width="50" height="50" relative="1" as="geometry">
            <mxPoint x="763" y="700" as="sourcePoint" />
            <mxPoint x="790" y="310" as="targetPoint" />
            <Array as="points">
              <mxPoint x="760" y="310" />
            </Array>
          </mxGeometry>
        </mxCell>
        <mxCell id="9iBqQjDq5Y0UraFRO6g6-96" value="" style="endArrow=classic;html=1;rounded=0;entryX=0;entryY=0.833;entryDx=0;entryDy=0;entryPerimeter=0;" parent="1" target="9iBqQjDq5Y0UraFRO6g6-38" edge="1">
          <mxGeometry width="50" height="50" relative="1" as="geometry">
            <mxPoint x="850" y="700" as="sourcePoint" />
            <mxPoint x="1090" y="320" as="targetPoint" />
            <Array as="points">
              <mxPoint x="910" y="700" />
              <mxPoint x="910" y="440" />
              <mxPoint x="910" y="290" />
            </Array>
          </mxGeometry>
        </mxCell>
        <mxCell id="9iBqQjDq5Y0UraFRO6g6-97" value="" style="endArrow=classic;html=1;rounded=0;" parent="1" edge="1">
          <mxGeometry width="50" height="50" relative="1" as="geometry">
            <mxPoint x="220" y="790" as="sourcePoint" />
            <mxPoint x="1080" y="290" as="targetPoint" />
            <Array as="points">
              <mxPoint x="1090" y="790" />
            </Array>
          </mxGeometry>
        </mxCell>
        <mxCell id="9iBqQjDq5Y0UraFRO6g6-98" value="Windows 10 GUI&amp;nbsp;&lt;br&gt;Login Form" style="text;html=1;strokeColor=none;fillColor=none;align=center;verticalAlign=middle;whiteSpace=wrap;rounded=0;" parent="1" vertex="1">
          <mxGeometry x="20" y="90" width="59" height="60" as="geometry" />
        </mxCell>
        <mxCell id="9iBqQjDq5Y0UraFRO6g6-99" value="Windows 10 GUI&amp;nbsp;&lt;br&gt;Admin Form" style="text;html=1;strokeColor=none;fillColor=none;align=center;verticalAlign=middle;whiteSpace=wrap;rounded=0;" parent="1" vertex="1">
          <mxGeometry x="280" y="110" width="59" height="60" as="geometry" />
        </mxCell>
        <mxCell id="9iBqQjDq5Y0UraFRO6g6-100" value="Windows 10 GUI&amp;nbsp;&lt;br&gt;" style="text;html=1;strokeColor=none;fillColor=none;align=center;verticalAlign=middle;whiteSpace=wrap;rounded=0;" parent="1" vertex="1">
          <mxGeometry x="480" y="100" width="59" height="60" as="geometry" />
        </mxCell>
        <mxCell id="9iBqQjDq5Y0UraFRO6g6-102" value="Windows 10 GUI&amp;nbsp;&lt;br&gt;Staff Form" style="text;html=1;strokeColor=none;fillColor=none;align=center;verticalAlign=middle;whiteSpace=wrap;rounded=0;" parent="1" vertex="1">
          <mxGeometry x="851" y="80" width="59" height="60" as="geometry" />
        </mxCell>
        <mxCell id="9iBqQjDq5Y0UraFRO6g6-103" value="Windows 10 GUI&amp;nbsp;&lt;br&gt;" style="text;html=1;strokeColor=none;fillColor=none;align=center;verticalAlign=middle;whiteSpace=wrap;rounded=0;" parent="1" vertex="1">
          <mxGeometry x="1030" y="60" width="59" height="60" as="geometry" />
        </mxCell>
        <mxCell id="9iBqQjDq5Y0UraFRO6g6-104" value="SQL SELECT:&amp;nbsp;&lt;br&gt;Username &amp;amp; password" style="text;html=1;strokeColor=none;fillColor=none;align=center;verticalAlign=middle;whiteSpace=wrap;rounded=0;" parent="1" vertex="1">
          <mxGeometry x="90" y="390" width="60" height="30" as="geometry" />
        </mxCell>
        <mxCell id="9iBqQjDq5Y0UraFRO6g6-107" value="SQL INSERT:&lt;br&gt;Add New Animal(Animal_ID)&lt;br&gt;SQL DELETE:&lt;br&gt;Delete Animal(Animal_ID)&lt;br&gt;SQL UPDATE:&lt;br&gt;Existing AnimalID" style="text;html=1;strokeColor=none;fillColor=none;align=center;verticalAlign=middle;whiteSpace=wrap;rounded=0;" parent="1" vertex="1">
          <mxGeometry x="278" y="375" width="91" height="35" as="geometry" />
        </mxCell>
        <mxCell id="9iBqQjDq5Y0UraFRO6g6-108" value="SQL INSERT:&amp;nbsp;&lt;br&gt;Ticket_ID" style="text;html=1;strokeColor=none;fillColor=none;align=center;verticalAlign=middle;whiteSpace=wrap;rounded=0;" parent="1" vertex="1">
          <mxGeometry x="463" y="390" width="60" height="20" as="geometry" />
        </mxCell>
        <mxCell id="9iBqQjDq5Y0UraFRO6g6-111" value="SQL DELETE:&lt;br&gt;Ticket_ID" style="text;html=1;strokeColor=none;fillColor=none;align=center;verticalAlign=middle;whiteSpace=wrap;rounded=0;" parent="1" vertex="1">
          <mxGeometry x="950" y="395" width="60" height="30" as="geometry" />
        </mxCell>
        <mxCell id="9iBqQjDq5Y0UraFRO6g6-113" value="SQL INSERT:&amp;nbsp;&lt;br&gt;Ticket_ID" style="text;html=1;strokeColor=none;fillColor=none;align=center;verticalAlign=middle;whiteSpace=wrap;rounded=0;" parent="1" vertex="1">
          <mxGeometry x="840" y="400" width="60" height="30" as="geometry" />
        </mxCell>
        <mxCell id="9iBqQjDq5Y0UraFRO6g6-114" value="Windows 10 GUI&amp;nbsp;&lt;br&gt;Login Form" style="text;html=1;strokeColor=none;fillColor=none;align=center;verticalAlign=middle;whiteSpace=wrap;rounded=0;" parent="1" vertex="1">
          <mxGeometry x="40" y="690" width="59" height="60" as="geometry" />
        </mxCell>
        <mxCell id="9iBqQjDq5Y0UraFRO6g6-115" value="Windows 10 GUI&amp;nbsp;&lt;br&gt;Admin Form" style="text;html=1;strokeColor=none;fillColor=none;align=center;verticalAlign=middle;whiteSpace=wrap;rounded=0;" parent="1" vertex="1">
          <mxGeometry x="176" y="630" width="59" height="60" as="geometry" />
        </mxCell>
        <mxCell id="9iBqQjDq5Y0UraFRO6g6-116" value="Windows 10 GUI&amp;nbsp;&lt;br&gt;" style="text;html=1;strokeColor=none;fillColor=none;align=center;verticalAlign=middle;whiteSpace=wrap;rounded=0;" parent="1" vertex="1">
          <mxGeometry x="369" y="640" width="59" height="60" as="geometry" />
        </mxCell>
        <mxCell id="9iBqQjDq5Y0UraFRO6g6-117" value="Windows 10 GUI&amp;nbsp;&lt;br&gt;Staff Form" style="text;html=1;strokeColor=none;fillColor=none;align=center;verticalAlign=middle;whiteSpace=wrap;rounded=0;" parent="1" vertex="1">
          <mxGeometry x="680" y="600" width="59" height="60" as="geometry" />
        </mxCell>
        <mxCell id="9iBqQjDq5Y0UraFRO6g6-118" value="Windows 10 GUI&amp;nbsp;&lt;br&gt;" style="text;html=1;strokeColor=none;fillColor=none;align=center;verticalAlign=middle;whiteSpace=wrap;rounded=0;" parent="1" vertex="1">
          <mxGeometry x="1030" y="665" width="59" height="60" as="geometry" />
        </mxCell>
        <mxCell id="9iBqQjDq5Y0UraFRO6g6-119" value="Windows 10 GUI&amp;nbsp;&lt;br&gt;" style="text;html=1;strokeColor=none;fillColor=none;align=center;verticalAlign=middle;whiteSpace=wrap;rounded=0;" parent="1" vertex="1">
          <mxGeometry x="848" y="600" width="59" height="60" as="geometry" />
        </mxCell>
        <mxCell id="9iBqQjDq5Y0UraFRO6g6-120" value="" style="endArrow=classic;html=1;rounded=0;" parent="1" edge="1">
          <mxGeometry width="50" height="50" relative="1" as="geometry">
            <mxPoint x="142" y="258.48" as="sourcePoint" />
            <mxPoint x="210" y="258" as="targetPoint" />
          </mxGeometry>
        </mxCell>
        <mxCell id="9iBqQjDq5Y0UraFRO6g6-121" value="" style="endArrow=classic;html=1;rounded=0;" parent="1" edge="1">
          <mxGeometry width="50" height="50" relative="1" as="geometry">
            <mxPoint x="520" y="260" as="sourcePoint" />
            <mxPoint x="591" y="260" as="targetPoint" />
          </mxGeometry>
        </mxCell>
        <mxCell id="9iBqQjDq5Y0UraFRO6g6-123" value="" style="endArrow=classic;html=1;rounded=0;entryX=0.008;entryY=0.592;entryDx=0;entryDy=0;entryPerimeter=0;" parent="1" edge="1">
          <mxGeometry width="50" height="50" relative="1" as="geometry">
            <mxPoint x="710" y="255" as="sourcePoint" />
            <mxPoint x="770.96" y="254.51999999999995" as="targetPoint" />
          </mxGeometry>
        </mxCell>
        <mxCell id="9iBqQjDq5Y0UraFRO6g6-124" value="" style="endArrow=classic;html=1;rounded=0;entryX=0.008;entryY=0.592;entryDx=0;entryDy=0;entryPerimeter=0;exitX=1;exitY=0.5;exitDx=0;exitDy=0;" parent="1" edge="1">
          <mxGeometry width="50" height="50" relative="1" as="geometry">
            <mxPoint x="890" y="257" as="sourcePoint" />
            <mxPoint x="960" y="256.49999999999994" as="targetPoint" />
          </mxGeometry>
        </mxCell>
        <mxCell id="9iBqQjDq5Y0UraFRO6g6-126" value="" style="endArrow=classic;html=1;rounded=0;" parent="1" edge="1">
          <mxGeometry width="50" height="50" relative="1" as="geometry">
            <mxPoint x="329.03999999999996" y="260" as="sourcePoint" />
            <mxPoint x="400" y="260" as="targetPoint" />
          </mxGeometry>
        </mxCell>
        <mxCell id="9iBqQjDq5Y0UraFRO6g6-127" value="Animal_ID" style="text;html=1;strokeColor=none;fillColor=none;align=center;verticalAlign=middle;whiteSpace=wrap;rounded=0;" parent="1" vertex="1">
          <mxGeometry x="339" y="220" width="60" height="30" as="geometry" />
        </mxCell>
        <mxCell id="9iBqQjDq5Y0UraFRO6g6-128" value="Username&amp;amp; Password" style="text;html=1;strokeColor=none;fillColor=none;align=center;verticalAlign=middle;whiteSpace=wrap;rounded=0;" parent="1" vertex="1">
          <mxGeometry x="142.5" y="220" width="60" height="30" as="geometry" />
        </mxCell>
        <mxCell id="9iBqQjDq5Y0UraFRO6g6-129" value="Visitor_ID" style="text;html=1;strokeColor=none;fillColor=none;align=center;verticalAlign=middle;whiteSpace=wrap;rounded=0;" parent="1" vertex="1">
          <mxGeometry x="523" y="220" width="60" height="30" as="geometry" />
        </mxCell>
        <mxCell id="9iBqQjDq5Y0UraFRO6g6-130" value="Visitor_ID" style="text;html=1;strokeColor=none;fillColor=none;align=center;verticalAlign=middle;whiteSpace=wrap;rounded=0;" parent="1" vertex="1">
          <mxGeometry x="710" y="220" width="60" height="30" as="geometry" />
        </mxCell>
        <mxCell id="9iBqQjDq5Y0UraFRO6g6-131" value="Ticket_ID" style="text;html=1;strokeColor=none;fillColor=none;align=center;verticalAlign=middle;whiteSpace=wrap;rounded=0;" parent="1" vertex="1">
          <mxGeometry x="900" y="220" width="60" height="30" as="geometry" />
        </mxCell>
        <mxCell id="CiFM0fumX8fCvP8ZAFzn-2" value="SQL INSERT:&lt;br&gt;Add new visitor (Visitor_ID)&lt;br&gt;SQL DELETE:&lt;br&gt;Delete Visitor (Visitor_ID)&lt;br&gt;SQL UPDATE:&lt;br&gt;Existing VisitorID" style="text;html=1;strokeColor=none;fillColor=none;align=center;verticalAlign=middle;whiteSpace=wrap;rounded=0;" parent="1" vertex="1">
          <mxGeometry x="660" y="390" width="91" height="35" as="geometry" />
        </mxCell>
        <mxCell id="CiFM0fumX8fCvP8ZAFzn-3" value="" style="endArrow=classic;html=1;rounded=0;entryX=0.5;entryY=1;entryDx=0;entryDy=0;" parent="1" edge="1">
          <mxGeometry width="50" height="50" relative="1" as="geometry">
            <mxPoint x="250" y="510" as="sourcePoint" />
            <mxPoint x="250" y="310" as="targetPoint" />
          </mxGeometry>
        </mxCell>
        <mxCell id="CiFM0fumX8fCvP8ZAFzn-5" value="SQL SELECT:&amp;nbsp;&lt;br&gt;Animal_ID" style="text;html=1;strokeColor=none;fillColor=none;align=center;verticalAlign=middle;whiteSpace=wrap;rounded=0;" parent="1" vertex="1">
          <mxGeometry x="190" y="390" width="60" height="30" as="geometry" />
        </mxCell>
        <mxCell id="CiFM0fumX8fCvP8ZAFzn-6" value="SQL SELECT:&amp;nbsp;&lt;br&gt;Visitor_ID" style="text;html=1;strokeColor=none;fillColor=none;align=center;verticalAlign=middle;whiteSpace=wrap;rounded=0;" parent="1" vertex="1">
          <mxGeometry x="570" y="390" width="60" height="30" as="geometry" />
        </mxCell>
        <mxCell id="CiFM0fumX8fCvP8ZAFzn-7" value="" style="endArrow=classic;html=1;rounded=0;entryX=0.5;entryY=1;entryDx=0;entryDy=0;" parent="1" edge="1">
          <mxGeometry width="50" height="50" relative="1" as="geometry">
            <mxPoint x="639" y="510" as="sourcePoint" />
            <mxPoint x="639" y="310" as="targetPoint" />
          </mxGeometry>
        </mxCell>
        <mxCell id="kzV21CLCLrBBbVwiqU61-1" value="" style="endArrow=classic;html=1;rounded=0;exitX=0;exitY=0;exitDx=35;exitDy=0;exitPerimeter=0;" parent="1" source="9iBqQjDq5Y0UraFRO6g6-78" edge="1">
          <mxGeometry width="50" height="50" relative="1" as="geometry">
            <mxPoint x="235" y="783.63" as="sourcePoint" />
            <mxPoint x="613" y="310.73" as="targetPoint" />
            <Array as="points">
              <mxPoint x="550" y="775" />
              <mxPoint x="550" y="310" />
            </Array>
          </mxGeometry>
        </mxCell>
        <mxCell id="kzV21CLCLrBBbVwiqU61-2" value="Windows 10 GUI&amp;nbsp;&lt;br&gt;" style="text;html=1;strokeColor=none;fillColor=none;align=center;verticalAlign=middle;whiteSpace=wrap;rounded=0;" parent="1" vertex="1">
          <mxGeometry x="491" y="720" width="59" height="60" as="geometry" />
        </mxCell>
        <mxCell id="kzV21CLCLrBBbVwiqU61-5" value="" style="endArrow=classic;html=1;rounded=0;entryX=0.5;entryY=0;entryDx=0;entryDy=0;exitX=0;exitY=0;exitDx=35;exitDy=0;exitPerimeter=0;" parent="1" target="9iBqQjDq5Y0UraFRO6g6-50" edge="1">
          <mxGeometry width="50" height="50" relative="1" as="geometry">
            <mxPoint x="320" y="62" as="sourcePoint" />
            <mxPoint x="650" y="182" as="targetPoint" />
            <Array as="points">
              <mxPoint x="650" y="62" />
            </Array>
          </mxGeometry>
        </mxCell>
        <mxCell id="kzV21CLCLrBBbVwiqU61-6" value="Windows 10 GUI&amp;nbsp;&lt;br&gt;" style="text;html=1;strokeColor=none;fillColor=none;align=center;verticalAlign=middle;whiteSpace=wrap;rounded=0;" parent="1" vertex="1">
          <mxGeometry x="650" y="100" width="59" height="60" as="geometry" />
        </mxCell>
      </root>
    </mxGraphModel>
  </diagram>
</mxfile>
